<svg version="1.1" id="Layer_1" xmlns="http://www.w3.org/2000/svg" xmlns:xlink="http://www.w3.org/1999/xlink" x="0px" y="0px"
	 width="100%" viewBox="0 0 300 177" enable-background="new 0 0 300 177" xml:space="preserve">
<path fill="#47704C" opacity="0" stroke="none" 
	d="
M301.000000,14.999998 
	C301.000000,69.245506 301.000000,123.491005 301.000000,178.000000 
	C265.312866,178.000000 229.625092,178.000000 193.603195,177.687408 
	C198.268311,173.325333 203.375870,169.398407 208.192398,165.142166 
	C209.432312,164.046494 209.756454,161.914474 210.501312,160.258560 
	C208.787720,159.505615 207.100342,158.183411 205.355789,158.103134 
	C199.376846,157.827988 193.363342,158.214752 187.396164,157.832123 
	C185.797058,157.729584 183.710770,156.119064 182.893127,154.627838 
	C180.354965,149.998764 178.381165,145.064148 176.071732,140.304688 
	C173.580856,135.171249 171.335892,134.079773 167.857315,136.084702 
	C164.372040,138.093491 164.122665,140.894135 166.932526,145.412476 
	C169.339890,149.283615 171.674362,153.200089 174.223831,157.397385 
	C170.798355,158.287994 165.775497,158.285416 168.821793,162.825714 
	C171.949631,167.487534 176.694260,171.064606 180.731323,175.116394 
	C181.047119,174.894104 181.362900,174.671814 181.678696,174.449524 
	C180.894104,171.522186 180.109512,168.594849 179.273956,165.477356 
	C184.932404,165.477356 190.236084,165.477356 196.321457,165.477356 
	C193.979034,170.117645 191.989517,174.058823 190.000000,178.000000 
	C177.645767,178.000000 165.291550,178.000000 152.499573,177.622314 
	C154.884277,169.487015 157.827393,161.769516 160.428391,153.938385 
	C160.955551,152.351181 160.753677,150.014206 159.929733,148.569290 
	C155.033096,139.982407 156.261230,134.287781 164.565887,128.697784 
	C167.369217,126.810822 170.152390,124.893906 171.859573,123.730324 
	C164.744400,109.568214 157.904282,95.953568 151.025665,82.262291 
	C143.940887,96.341805 137.045288,110.045357 130.098022,123.851570 
	C132.321930,125.282372 135.292099,127.082558 138.146118,129.051132 
	C145.516632,134.134933 146.706268,140.599136 142.208908,148.422318 
	C141.329681,149.951736 141.158508,152.435074 141.705414,154.144150 
	C144.270462,162.160034 147.200378,170.059174 150.000000,178.000000 
	C137.312439,178.000000 124.624878,178.000000 111.434891,177.631607 
	C109.360695,173.381943 107.788925,169.500671 106.113319,165.362976 
	C112.017357,165.362976 117.233864,165.362976 122.868240,165.362976 
	C121.902740,168.679840 121.069290,171.543045 120.235840,174.406265 
	C120.836792,174.857269 121.437744,175.308273 122.038689,175.759277 
	C125.743515,171.584183 129.609375,167.537537 133.085403,163.179947 
	C134.831009,160.991653 134.454788,158.758942 131.172348,158.058502 
	C130.132660,157.836639 129.064713,157.747269 127.475105,157.521255 
	C130.218079,153.143250 132.634766,149.235992 135.102188,145.361038 
	C137.934372,140.913193 137.676086,138.027390 134.084427,136.080276 
	C129.757660,133.734680 127.683388,136.436493 126.063126,139.870193 
	C123.666176,144.949860 121.508980,150.155258 118.842834,155.087173 
	C118.104813,156.452377 115.965500,157.767151 114.400612,157.852768 
	C108.431870,158.179352 102.426514,157.818420 96.454323,158.111496 
	C94.735222,158.195847 92.636314,159.263153 91.598236,160.579193 
	C91.126038,161.177841 92.433228,163.900085 93.584358,164.934631 
	C98.592209,169.435181 103.839622,173.669174 109.000000,178.000000 
	C73.058189,178.000000 37.116386,178.000000 1.000000,178.000000 
	C1.000000,123.979233 1.000000,69.958275 1.303310,15.690693 
	C4.051898,22.995317 6.720794,30.483728 8.866402,38.119183 
	C10.379051,43.502171 11.968823,47.109505 18.929688,47.740524 
	C33.366795,49.049286 47.672836,51.815132 62.027897,54.013695 
	C71.273872,55.429768 80.511200,56.902344 89.923637,58.376411 
	C89.454811,61.603973 91.750694,65.390228 86.772453,65.929520 
	C73.626877,67.353584 60.461937,68.599373 47.317589,70.034164 
	C38.327873,71.015450 29.359787,72.194855 19.669596,73.372253 
	C20.507025,75.408760 21.007673,76.928185 21.730722,78.333160 
	C25.142374,84.962433 28.782936,91.480186 31.991720,98.204796 
	C33.495148,101.355507 35.156940,101.683968 38.183147,100.470535 
	C46.469784,97.147781 54.862553,94.089081 63.220390,90.944672 
	C72.898712,87.303459 82.584595,83.682327 92.260254,80.055084 
	C93.980698,83.188110 96.727837,85.695702 92.756721,88.602257 
	C85.823952,93.676544 78.932663,98.808495 72.071121,103.978828 
	C65.023506,109.289352 58.032303,114.674744 50.704895,120.265038 
	C57.018379,124.774231 62.706543,129.023361 68.643059,132.891312 
	C69.621140,133.528580 72.259682,133.052155 73.155052,132.136383 
	C77.315559,127.881020 81.083702,123.245544 85.084129,118.829330 
	C91.178970,112.100990 97.349525,105.441231 103.341660,98.911743 
	C107.551041,100.772224 107.939034,103.179016 106.291374,106.426537 
	C104.796387,109.373131 103.516602,112.434013 102.241753,115.486198 
	C98.814293,123.692024 95.440208,131.920135 91.872604,140.556564 
	C96.261086,141.454208 100.098930,142.321686 103.968147,143.013870 
	C112.573685,144.553345 112.459335,144.494644 114.055153,136.089493 
	C115.703949,127.405327 117.619896,118.771889 119.446945,109.981667 
	C121.944923,109.981667 123.782631,110.113663 125.595551,109.957603 
	C131.707321,109.431473 135.272278,104.239929 133.652878,98.342705 
	C132.221802,93.131332 128.228363,90.756203 123.549950,88.973923 
	C115.483765,85.901039 108.492065,81.606606 105.676819,72.342285 
	C136.087677,72.342285 165.981949,72.342285 196.300873,72.342285 
	C193.125275,81.269547 186.633194,85.819862 178.688126,89.037491 
	C175.845474,90.188721 172.987183,91.818085 170.785950,93.912346 
	C167.669952,96.876938 166.598007,101.443405 168.800446,104.819077 
	C170.461456,107.364891 174.464127,108.520805 177.596802,109.905624 
	C178.991943,110.522369 180.810867,110.180489 182.694641,110.288445 
	C185.064758,121.963303 187.376541,133.350815 189.725739,144.922638 
	C196.648560,143.417068 203.165176,141.999847 210.121964,140.486893 
	C205.269516,128.988235 200.716095,118.006126 195.985336,107.100967 
	C194.501633,103.680756 193.809494,100.827621 198.765396,98.956779 
	C207.456680,108.566719 216.486801,118.050606 224.910645,128.045486 
	C230.323547,134.467880 230.415375,134.932419 237.259109,130.191254 
	C241.914459,126.966148 246.471359,123.598923 251.191116,120.209908 
	C237.427444,109.732338 224.462296,99.465134 211.027771,89.854065 
	C206.407120,86.548447 206.593460,84.012772 209.872375,80.258286 
	C229.207886,87.460594 248.595078,94.682144 267.951172,101.892105 
	C273.053345,91.944824 277.668396,82.947197 282.635620,73.263039 
	C258.470276,70.586128 235.523682,68.044228 212.370087,65.479401 
	C212.370087,63.038090 212.370087,60.806671 212.370087,58.205780 
	C235.149994,54.771069 257.627197,51.187550 280.169403,48.074551 
	C289.784912,46.746685 289.781921,47.171299 292.961243,37.793457 
	C295.547791,30.164091 298.313629,22.595520 301.000000,14.999998 
z"/>
<path fill="#CD9A33" opacity="1" stroke="none" 
	d="
M301.000000,14.600002 
	C298.313629,22.595520 295.547791,30.164091 292.961243,37.793457 
	C289.781921,47.171299 289.784912,46.746685 280.169403,48.074551 
	C257.627197,51.187550 235.149994,54.771069 212.370087,58.205780 
	C212.370087,60.806671 212.370087,63.038090 212.370087,65.479401 
	C235.523682,68.044228 258.470276,70.586128 282.635620,73.263039 
	C277.668396,82.947197 273.053345,91.944824 267.951172,101.892105 
	C248.595078,94.682144 229.207886,87.460594 209.872375,80.258286 
	C206.593460,84.012772 206.407120,86.548447 211.027771,89.854065 
	C224.462296,99.465134 237.427444,109.732338 251.191116,120.209908 
	C246.471359,123.598923 241.914459,126.966148 237.259109,130.191254 
	C230.415375,134.932419 230.323547,134.467880 224.910645,128.045486 
	C216.486801,118.050606 207.456680,108.566719 198.765396,98.956779 
	C193.809494,100.827621 194.501633,103.680756 195.985336,107.100967 
	C200.716095,118.006126 205.269516,128.988235 210.121964,140.486893 
	C203.165176,141.999847 196.648560,143.417068 189.725739,144.922638 
	C187.376541,133.350815 185.064758,121.963303 182.694641,110.288445 
	C180.810867,110.180489 178.991943,110.522369 177.596802,109.905624 
	C174.464127,108.520805 170.461456,107.364891 168.800446,104.819077 
	C166.598007,101.443405 167.669952,96.876938 170.785950,93.912346 
	C172.987183,91.818085 175.845474,90.188721 178.688126,89.037491 
	C186.633194,85.819862 193.125275,81.269547 196.300873,72.342285 
	C165.981949,72.342285 136.087677,72.342285 105.676819,72.342285 
	C108.492065,81.606606 115.483765,85.901039 123.549950,88.973923 
	C128.228363,90.756203 132.221802,93.131332 133.652878,98.342705 
	C135.272278,104.239929 131.707321,109.431473 125.595551,109.957603 
	C123.782631,110.113663 121.944923,109.981667 119.446945,109.981667 
	C117.619896,118.771889 115.703949,127.405327 114.055153,136.089493 
	C112.459335,144.494644 112.573685,144.553345 103.968147,143.013870 
	C100.098930,142.321686 96.261086,141.454208 91.872604,140.556564 
	C95.440208,131.920135 98.814293,123.692024 102.241753,115.486198 
	C103.516602,112.434013 104.796387,109.373131 106.291374,106.426537 
	C107.939034,103.179016 107.551041,100.772224 103.341660,98.911743 
	C97.349525,105.441231 91.178970,112.100990 85.084129,118.829330 
	C81.083702,123.245544 77.315559,127.881020 73.155052,132.136383 
	C72.259682,133.052155 69.621140,133.528580 68.643059,132.891312 
	C62.706543,129.023361 57.018379,124.774231 50.704895,120.265038 
	C58.032303,114.674744 65.023506,109.289352 72.071121,103.978828 
	C78.932663,98.808495 85.823952,93.676544 92.756721,88.602257 
	C96.727837,85.695702 93.980698,83.188110 92.260254,80.055084 
	C82.584595,83.682327 72.898712,87.303459 63.220390,90.944672 
	C54.862553,94.089081 46.469784,97.147781 38.183147,100.470535 
	C35.156940,101.683968 33.495148,101.355507 31.991720,98.204796 
	C28.782936,91.480186 25.142374,84.962433 21.730722,78.333160 
	C21.007673,76.928185 20.507025,75.408760 19.669596,73.372253 
	C29.359787,72.194855 38.327873,71.015450 47.317589,70.034164 
	C60.461937,68.599373 73.626877,67.353584 86.772453,65.929520 
	C91.750694,65.390228 89.454811,61.603973 89.923637,58.376411 
	C80.511200,56.902344 71.273872,55.429768 62.027897,54.013695 
	C47.672836,51.815132 33.366795,49.049286 18.929688,47.740524 
	C11.968823,47.109505 10.379051,43.502171 8.866402,38.119183 
	C6.720794,30.483728 4.051898,22.995317 1.303310,15.222034 
	C1.000000,13.933331 1.000000,12.866661 1.339779,11.531587 
	C32.397751,22.282650 63.115940,33.302120 93.009735,44.025856 
	C98.767876,37.842365 103.906815,32.323826 109.045746,26.805285 
	C109.437279,26.965939 109.828804,27.126593 110.220337,27.287245 
	C102.962753,40.571701 101.129631,54.447121 104.561348,70.364578 
	C107.918137,65.262352 110.522095,61.321186 113.109306,57.369057 
	C125.408707,38.581009 137.703537,19.789970 150.000000,1.000000 
	C150.444443,1.000000 150.888901,1.000000 151.789215,1.322612 
	C167.063370,24.201099 181.881653,46.756977 196.699936,69.312851 
	C200.635834,54.444515 199.097977,40.613262 192.311874,27.161413 
	C197.167740,31.434715 201.967545,35.710022 205.659088,40.790592 
	C207.686478,43.580822 209.082031,44.124012 211.949127,42.941193 
	C215.458755,41.493294 219.052994,40.246170 222.630630,38.968182 
	C248.750931,29.637575 274.876251,20.321003 301.000000,11.000002 
	C301.000000,12.066669 301.000000,13.133339 301.000000,14.600002 
M169.876312,41.330891 
	C170.467133,40.094105 171.057938,38.857323 171.678223,37.558834 
	C157.603409,37.558834 144.007462,37.558834 129.763184,37.558834 
	C136.995728,48.479519 143.766617,58.703140 150.916321,69.498756 
	C157.374115,59.909977 163.423737,50.927280 169.876312,41.330891 
z"/>
<path fill="#47704C" opacity="0" stroke="none" 
	d="
M149.531342,1.000000 
	C137.703537,19.789970 125.408707,38.581009 113.109306,57.369057 
	C110.522095,61.321186 107.918137,65.262352 104.561348,70.364578 
	C101.129631,54.447121 102.962753,40.571701 110.220337,27.287245 
	C109.828804,27.126593 109.437279,26.965939 109.045746,26.805285 
	C103.906815,32.323826 98.767876,37.842365 93.009735,44.025856 
	C63.115940,33.302120 32.397751,22.282650 1.339779,11.131591 
	C1.000000,7.675863 1.000000,4.351726 1.000000,1.000000 
	C50.354225,1.000000 99.708450,1.000000 149.531342,1.000000 
z"/>
<path fill="#47704C" opacity="0" stroke="none" 
	d="
M301.000000,10.513437 
	C274.876251,20.321003 248.750931,29.637575 222.630630,38.968182 
	C219.052994,40.246170 215.458755,41.493294 211.949127,42.941193 
	C209.082031,44.124012 207.686478,43.580822 205.659088,40.790592 
	C201.967545,35.710022 197.167740,31.434715 192.311874,27.161413 
	C199.097977,40.613262 200.635834,54.444515 196.699936,69.312851 
	C181.881653,46.756977 167.063370,24.201099 152.122543,1.322612 
	C201.666672,1.000000 251.333344,1.000000 301.000000,1.000000 
	C301.000000,4.044779 301.000000,7.035825 301.000000,10.513437 
z"/>
<path fill="#CD9A33" opacity="1" stroke="none" 
	d="
M150.333328,178.000000 
	C147.200378,170.059174 144.270462,162.160034 141.705414,154.144150 
	C141.158508,152.435074 141.329681,149.951736 142.208908,148.422318 
	C146.706268,140.599136 145.516632,134.134933 138.146118,129.051132 
	C135.292099,127.082558 132.321930,125.282372 130.098022,123.851570 
	C137.045288,110.045357 143.940887,96.341805 151.025665,82.262291 
	C157.904282,95.953568 164.744400,109.568214 171.859573,123.730324 
	C170.152390,124.893906 167.369217,126.810822 164.565887,128.697784 
	C156.261230,134.287781 155.033096,139.982407 159.929733,148.569290 
	C160.753677,150.014206 160.955551,152.351181 160.428391,153.938385 
	C157.827393,161.769516 154.884277,169.487015 152.030914,177.622314 
	C151.555557,178.000000 151.111099,178.000000 150.333328,178.000000 
z"/>
<path fill="#CE9B33" opacity="1.000000" stroke="none" 
	d="
M109.333328,178.000000 
	C103.839622,173.669174 98.592209,169.435181 93.584358,164.934631 
	C92.433228,163.900085 91.126038,161.177841 91.598236,160.579193 
	C92.636314,159.263153 94.735222,158.195847 96.454323,158.111496 
	C102.426514,157.818420 108.431870,158.179352 114.400612,157.852768 
	C115.965500,157.767151 118.104813,156.452377 118.842834,155.087173 
	C121.508980,150.155258 123.666176,144.949860 126.063126,139.870193 
	C127.683388,136.436493 129.757660,133.734680 134.084427,136.080276 
	C137.676086,138.027390 137.934372,140.913193 135.102188,145.361038 
	C132.634766,149.235992 130.218079,153.143250 127.475105,157.521255 
	C129.064713,157.747269 130.132660,157.836639 131.172348,158.058502 
	C134.454788,158.758942 134.831009,160.991653 133.085403,163.179947 
	C129.609375,167.537537 125.743515,171.584183 122.038689,175.759277 
	C121.437744,175.308273 120.836792,174.857269 120.235840,174.406265 
	C121.069290,171.543045 121.902740,168.679840 122.868240,165.362976 
	C117.233864,165.362976 112.017357,165.362976 106.113319,165.362976 
	C107.788925,169.500671 109.360695,173.381943 110.966232,177.631607 
	C110.555557,178.000000 110.111107,178.000000 109.333328,178.000000 
z"/>
<path fill="#CF9B33" opacity="1.000000" stroke="none" 
	d="
M190.375000,178.000000 
	C191.989517,174.058823 193.979034,170.117645 196.321457,165.477356 
	C190.236084,165.477356 184.932404,165.477356 179.273956,165.477356 
	C180.109512,168.594849 180.894104,171.522186 181.678696,174.449524 
	C181.362900,174.671814 181.047119,174.894104 180.731323,175.116394 
	C176.694260,171.064606 171.949631,167.487534 168.821793,162.825714 
	C165.775497,158.285416 170.798355,158.287994 174.223831,157.397385 
	C171.674362,153.200089 169.339890,149.283615 166.932526,145.412476 
	C164.122665,140.894135 164.372040,138.093491 167.857315,136.084702 
	C171.335892,134.079773 173.580856,135.171249 176.071732,140.304688 
	C178.381165,145.064148 180.354965,149.998764 182.893127,154.627838 
	C183.710770,156.119064 185.797058,157.729584 187.396164,157.832123 
	C193.363342,158.214752 199.376846,157.827988 205.355789,158.103134 
	C207.100342,158.183411 208.787720,159.505615 210.501312,160.258560 
	C209.756454,161.914474 209.432312,164.046494 208.192398,165.142166 
	C203.375870,169.398407 198.268311,173.325333 193.134537,177.687408 
	C192.250000,178.000000 191.500000,178.000000 190.375000,178.000000 
z"/>
<path fill="#47704C" opacity="0" stroke="none" 
	d="
M169.674835,41.637741 
	C163.423737,50.927280 157.374115,59.909977 150.916321,69.498756 
	C143.766617,58.703140 136.995728,48.479519 129.763184,37.558834 
	C144.007462,37.558834 157.603409,37.558834 171.678223,37.558834 
	C171.057938,38.857323 170.467133,40.094105 169.674835,41.637741 
z"/>
</svg>